<svg width="1440" height="900" viewBox="0 0 1440 900" fill="none" xmlns="http://www.w3.org/2000/svg">
<g clip-path="url(#clip0)">
<path d="M1384.24 -111.185C1440 -81.2028 1492.75 -35.63 1523.33 24.9339C1553.31 84.8981 1560.5 160.453 1537.12 223.415C1513.74 286.977 1459.78 337.947 1399.83 394.913C1339.88 451.879 1274.53 514.841 1188.8 543.025C1103.06 571.208 996.349 565.211 961.577 499.85C927.404 434.489 964.575 310.363 936.397 210.823C908.819 111.282 815.293 35.7274 833.279 1.54782C851.265 -32.0321 980.162 -25.4361 1061.1 -47.6228C1142.63 -69.8096 1175.61 -121.379 1222.37 -139.368C1268.53 -157.357 1327.89 -141.767 1384.24 -111.185Z" fill="#FFA400"/>
<path d="M967.047 1132.05L967.039 1132.04L967.03 1132.03C947.028 1112.25 938.597 1078.99 933.22 1040.02C931.247 1025.72 929.695 1010.76 928.114 995.507C927.546 990.031 926.974 984.519 926.377 978.987C924.123 958.073 921.518 936.918 917.44 916.64L917.439 916.638C911.631 887.927 902.88 860.976 894.85 836.244C891.623 826.305 888.513 816.725 885.756 807.533C876.072 775.243 870.814 747.91 879.146 725.682L879.151 725.67L879.155 725.658C887.265 703.173 909.035 685.34 936.904 666.316C943.615 661.735 950.668 657.091 957.937 652.306C980.656 637.349 1005.48 621.005 1028.55 600.838L1028.55 600.833C1049.54 582.335 1069.07 560.602 1088.2 539.326C1096.57 530.013 1104.86 520.788 1113.16 511.96C1140.55 482.83 1168.07 457.968 1199.32 447.392L1199.33 447.388C1261.81 425.772 1340.08 461.052 1370.24 522.815C1385.32 553.704 1388.54 591.281 1391.71 631.201L1391.88 633.315C1394.98 672.459 1398.25 713.652 1413.15 751.98L1413.16 751.99C1427.01 787.071 1450.69 819.694 1473.73 851.434C1476.29 854.969 1478.85 858.494 1481.39 862.009C1506.79 897.229 1529.92 931.533 1537.22 967.595L1537.23 967.602L1537.23 967.609C1552.28 1039.15 1504.23 1119.04 1435.22 1149.78L1435.21 1149.78C1400.52 1165.37 1360.52 1168.72 1317.75 1167.88C1296.45 1167.47 1274.52 1166.02 1252.24 1164.54L1252.01 1164.53C1229.68 1163.05 1207.01 1161.55 1184.39 1161.07C1164.42 1160.65 1144.53 1160.98 1125.25 1161.3C1122.81 1161.34 1120.39 1161.38 1117.97 1161.42C1096.43 1161.76 1075.76 1161.97 1056.65 1160.96C1018.31 1158.93 986.771 1152.01 967.047 1132.05Z" stroke="#FFA400" stroke-width="4"/>
<path d="M-71.4982 87.9539L-71.4899 87.9622L-71.4817 87.9705C-49.7324 109.968 -13.1688 119.223 29.5786 125.121C45.267 127.286 61.6874 128.989 78.4219 130.725C84.429 131.348 90.4766 131.975 96.5453 132.63C119.489 135.103 142.692 137.96 164.93 142.433L164.932 142.433C196.419 148.803 225.971 158.399 253.102 167.208C264.008 170.75 274.524 174.164 284.616 177.191C320.039 187.814 350.086 193.606 374.542 184.438L374.554 184.434L374.565 184.43C399.301 175.508 418.897 151.568 439.766 120.997C444.796 113.629 449.892 105.887 455.144 97.9101C471.552 72.9858 489.473 45.7641 511.59 20.4681L511.595 20.4622C531.881 -2.5575 555.711 -23.9754 579.049 -44.9511C589.269 -54.1363 599.394 -63.2368 609.086 -72.3498C641.047 -102.401 668.357 -132.629 679.977 -166.962L679.981 -166.975C703.731 -235.619 664.971 -321.592 597.13 -354.725C563.202 -371.295 521.935 -374.825 478.146 -378.303L475.839 -378.487C432.885 -381.894 387.716 -385.478 345.691 -401.815L345.681 -401.819C307.218 -417.009 271.447 -442.974 236.62 -468.254C232.742 -471.069 228.876 -473.875 225.019 -476.657C186.382 -504.527 148.715 -529.928 109.103 -537.951L109.096 -537.953L109.088 -537.954C30.4961 -554.494 -57.2396 -501.713 -90.9946 -425.92L-90.9972 -425.914C-108.11 -387.812 -111.786 -343.896 -110.871 -296.959C-110.415 -273.582 -108.823 -249.515 -107.206 -225.081L-107.189 -224.826C-105.568 -200.322 -103.927 -175.454 -103.402 -150.644C-102.935 -128.739 -103.297 -106.913 -103.648 -85.7628C-103.692 -83.0903 -103.736 -80.4286 -103.778 -77.7789C-104.155 -54.1386 -104.383 -31.4593 -103.273 -10.4798C-101.048 31.5866 -93.457 66.2579 -71.4982 87.9539Z" stroke="#FFA400" stroke-width="4"/>
<path d="M267.645 680.715C319.682 720.165 346.149 792.789 348.84 859.586C351.083 925.933 329.551 986.454 294.56 1026.8C260.019 1067.15 212.019 1087.77 170.749 1113.77C129.927 1140.22 95.3851 1172.5 48.2828 1190.43C0.731903 1208.36 -59.8282 1212.4 -104.239 1187.29C-149.098 1162.19 -177.808 1107.94 -190.817 1052.35C-204.275 996.316 -202.032 938.934 -201.584 864.068C-200.686 789.651 -201.135 696.854 -157.621 654.266C-114.108 612.126 -26.6323 619.298 55.9089 626.471C138.45 633.644 216.057 640.817 267.645 680.715Z" fill="#FFA400"/>
<path d="M16.3131 1169.72C-9.02702 1109.54 4.36394 1033.41 35.4311 974.218C66.6626 915.637 115.57 873.991 166.046 856.545C216.133 838.875 268.013 845.016 316.755 843.133C365.333 840.638 411.385 829.956 461.143 837.978C511.289 846.224 565.753 873.01 591.662 916.956C617.959 961.127 615.7 1022.46 599.172 1077.1C582.808 1132.36 552.175 1180.94 514.354 1245.55C476.368 1309.55 430.358 1390.14 371.38 1405.26C312.626 1420 240.456 1370.05 172.56 1322.57C104.664 1275.08 41.0406 1230.07 16.3131 1169.72Z" fill="#FF7700"/>
</g>
<defs>
<clipPath id="clip0">
<rect width="1440" height="1024" fill="white"/>
</clipPath>
</defs>
</svg>
