<svg width="32" height="33" viewBox="0 0 32 33" fill="none" xmlns="http://www.w3.org/2000/svg">
<path d="M7.23408 15.2766C7.23411 15.1087 7.26722 14.9424 7.3315 14.7873C7.39578 14.6322 7.48996 14.4914 7.60865 14.3729C7.72734 14.2544 7.86818 14.1606 8.02311 14.0969C8.17803 14.0331 8.34397 14.0007 8.51141 14.0015L10.6291 14.0085C10.9667 14.0085 11.2906 14.143 11.5293 14.3825C11.7681 14.622 11.9022 14.9469 11.9022 15.2856V23.3185C12.1407 23.2476 12.446 23.172 12.7819 23.0927C13.0146 23.0377 13.222 22.9056 13.3704 22.7176C13.5189 22.5296 13.5997 22.2969 13.5997 22.0571V12.0934C13.5997 11.7547 13.7338 11.4299 13.9726 11.1903C14.2113 10.9508 14.5352 10.8162 14.8728 10.8161H16.9969C17.3346 10.8162 17.6584 10.9508 17.8972 11.1903C18.1359 11.4299 18.2701 11.7547 18.2701 12.0934V21.3413C18.2701 21.3413 18.8015 21.1256 19.3188 20.9064C19.511 20.8249 19.675 20.6883 19.7904 20.5139C19.9058 20.3394 19.9674 20.1347 19.9676 19.9254V8.90059C19.9676 8.56192 20.1017 8.23713 20.3404 7.99763C20.5791 7.75814 20.9028 7.62356 21.2404 7.62349H23.3623C23.6998 7.62382 24.0233 7.75852 24.2618 7.99799C24.5002 8.23745 24.6342 8.5621 24.6342 8.90059V17.9791C26.4738 16.6417 28.3382 15.0332 29.8177 13.0991C30.0323 12.8183 30.1744 12.4886 30.2311 12.1394C30.2879 11.7902 30.2576 11.4324 30.1429 11.0978C29.4581 9.12128 28.3694 7.30998 26.9467 5.77977C25.5239 4.24955 23.7984 3.03412 21.8805 2.21125C19.9626 1.38838 17.8945 0.976192 15.8087 1.00106C13.7229 1.02593 11.6652 1.48731 9.76737 2.35568C7.8695 3.22405 6.17325 4.48028 4.78716 6.04398C3.40106 7.60769 2.35565 9.44443 1.71781 11.4367C1.07998 13.4289 0.863765 15.5328 1.08301 17.6137C1.30226 19.6946 1.95214 21.7066 2.99107 23.5211C3.17207 23.8341 3.43837 24.0888 3.75868 24.2552C4.07899 24.4217 4.44 24.493 4.7993 24.4608C5.20069 24.4253 5.70045 24.3752 6.29462 24.3053C6.55322 24.2758 6.79197 24.1519 6.96539 23.9572C7.13881 23.7625 7.2348 23.5107 7.23507 23.2496V15.2766" fill="#C34A09"/>
<path d="M7.18872 28.1594C9.42533 29.7916 12.0685 30.7713 14.8257 30.9901C17.5829 31.209 20.3468 30.6584 22.8114 29.3993C25.2761 28.1403 27.3455 26.2219 28.7907 23.8563C30.2358 21.4907 31.0005 18.7701 31 15.9957C31 15.6486 30.9839 15.3069 30.9609 14.9662C25.4831 23.1616 15.3688 26.9929 7.18872 28.1594" fill="#C34A09"/>
</svg>
