<svg width="310" height="262" viewBox="0 0 310 262" fill="none" xmlns="http://www.w3.org/2000/svg">
<path d="M275.898 9.58926C281.879 9.58926 288.051 14.2415 288.905 21.4572C289.57 26.679 289.76 35.5088 289.38 45.5727C294.127 43.9587 298.115 43.2941 298.115 43.2941C298.115 43.2941 300.583 43.1042 304.571 43.1042C316.629 43.1042 342.738 45.193 360.207 62.1878C383.469 84.7843 382.044 99.7853 376.728 106.621C372.17 112.508 360.207 112.887 356.789 112.887C356.22 112.887 355.84 112.887 355.84 112.887C355.84 112.887 355.555 112.887 354.986 112.887C350.143 112.887 324.604 112.033 296.311 95.228C291.279 92.1898 287.196 89.2466 284.063 86.2084C283.209 89.4365 282.259 92.5696 281.215 95.4179C280.93 96.2724 279.98 98.551 279.316 100.165C281.215 101.494 283.114 102.823 285.012 104.343C293.937 111.178 302.292 119.249 310.077 128.648C310.647 129.503 311.217 130.357 311.691 131.211C374.639 230.997 297.45 408.73 110.697 424.301C105.76 424.776 101.013 425.061 96.4553 425.061C82.2138 425.061 69.7763 422.592 59.1427 418.51C23.3491 404.458 7.68347 370.848 10.057 344.074C13.8548 302.489 45.186 304.578 38.54 220.553C43.3821 129.787 118.387 73.9607 194.437 73.9607C215.134 73.9607 235.927 78.1382 255.485 86.7781C255.58 86.873 255.675 86.873 255.865 86.968C261.467 68.454 264.79 38.8318 264.125 29.2425C262.891 15.1909 269.347 9.58926 275.898 9.58926ZM275.898 0C270.201 0 264.884 2.27864 260.897 6.45614C257.384 10.2539 253.396 17.2797 254.251 29.7172C254.726 36.2683 252.827 56.6811 249.029 73.7709C231.654 67.4097 213.235 64.1816 194.247 64.1816C174.119 64.1816 154.181 67.7894 135.097 74.9102C115.919 82.1259 98.4491 92.4747 83.2582 105.767C67.4027 119.628 54.6803 136.149 45.4708 154.852C35.5968 174.695 29.9951 196.627 28.7609 219.793C28.7609 220.173 28.7609 220.648 28.7609 221.028C32.6535 270.588 23.1592 287.488 13.9497 303.818C7.9683 314.547 1.89193 325.465 0.2779 343.125C-1.14625 359.17 2.93631 376.07 11.766 390.881C21.6401 407.401 36.7361 420.029 55.3449 427.339C67.6875 432.181 81.3594 434.555 96.1705 434.555C101.108 434.555 106.14 434.27 111.361 433.7C136.426 431.612 160.542 426.58 182.949 418.699C204.216 411.294 224.059 401.325 242.193 388.982C275.803 366.101 302.957 335.339 320.616 299.926C335.048 271.063 342.643 239.826 342.738 209.729C342.833 178.873 334.858 149.82 319.667 125.895C319.002 124.945 318.432 123.996 317.863 123.141C317.673 122.856 317.483 122.572 317.293 122.382C314.16 118.584 310.932 115.071 307.609 111.558C331.25 121.622 350.618 122.287 354.986 122.287C355.365 122.287 355.65 122.287 355.84 122.287C356.03 122.287 356.41 122.287 356.789 122.287C364.195 122.287 377.582 120.958 384.323 112.318C387.266 108.52 391.729 100.355 388.501 87.7275C385.842 77.4736 378.626 66.4602 366.948 55.067C347.485 36.0784 319.572 33.2301 304.666 33.2301C302.387 33.2301 300.583 33.3251 299.254 33.3251C299.159 28.1981 298.969 23.6409 298.494 20.128C297.07 8.73477 287.386 0 275.898 0Z" fill="#670000"/>
<path d="M242.573 190.171C222.16 220.838 212.476 257.201 200.513 292.045C188.55 326.889 172.98 362.208 144.592 385.659C123.894 402.749 97.6897 412.148 71.2005 416.705C67.118 417.37 63.0354 417.94 58.8579 418.414C72.9095 423.921 90.0942 426.389 110.507 424.206C297.355 408.635 374.449 230.901 311.502 131.116C283.778 144.218 259.473 164.631 242.573 190.171Z" fill="#FF952E"/>
<path d="M144.592 385.659C172.98 362.208 188.55 326.889 200.513 292.045C212.476 257.201 222.16 220.932 242.573 190.171C259.568 164.631 283.778 144.218 311.502 131.116C310.932 130.262 310.457 129.407 309.888 128.553C302.197 119.248 293.747 111.178 284.823 104.247C275.518 97.0316 265.549 91.24 255.295 86.5878C164.15 45.9521 44.5214 104.912 38.3501 220.363C44.9012 304.387 13.5699 302.299 9.86715 343.884C7.49357 370.658 23.0642 404.268 58.9528 418.319C63.0353 417.845 67.2128 417.275 71.2954 416.61C97.6896 412.148 123.894 402.749 144.592 385.659Z" fill="#FFC600"/>
<path d="M281.949 93.7614C290.588 70.7852 291.443 33.4725 289.829 19.8007C288.025 4.70472 261.895 0.845386 263.794 27.4295C264.459 37.3036 261.607 68.5179 255.815 86.9369C264.126 91.2586 271.773 95.4142 279.48 100.218C279.955 99.0782 281.474 94.9957 281.949 93.7614Z" fill="#FF952E"/>
<path d="M273.619 57.4401C273.619 57.4401 264.694 76.5237 296.216 95.2275C327.737 113.931 355.745 112.887 355.745 112.887C355.745 112.887 371.316 113.457 376.632 106.621C381.949 99.7848 383.373 84.7838 360.112 62.1873C336.851 39.5908 298.114 43.1987 298.114 43.1987C298.114 43.1987 275.708 47.2812 273.619 57.4401Z" fill="#AAC300"/>
<path d="M125.506 156.051C128.029 146.521 119.145 135.901 105.661 132.331C92.1778 128.76 79.2015 133.591 76.6779 143.12C74.1543 152.65 83.0389 163.27 96.5224 166.84C110.006 170.411 122.982 165.58 125.506 156.051Z" fill="#FF6600"/>
<path d="M131.68 152.004C133.483 147.351 140.224 137.477 146.301 142.319C151.997 146.877 143.832 156.751 141.079 160.643C137.186 166.055 146.206 171.277 150.099 165.865C153.991 160.549 158.074 154.567 158.548 147.731C158.928 141.845 156.27 135.958 151.143 133.015C138.326 125.515 125.983 137.952 121.711 149.25C119.242 155.517 129.306 158.27 131.68 152.004Z" fill="#670000"/>
<path d="M254.431 243.72C261.359 236.708 258.933 223.077 249.011 213.274C239.09 203.472 225.431 201.21 218.503 208.222C211.575 215.233 214.001 228.864 223.922 238.667C233.844 248.469 247.503 250.732 254.431 243.72Z" fill="#FF6600"/>
<path d="M226.243 210.204C234.408 201.375 238.49 182.956 226.718 174.885C221.116 171.088 213.805 172.037 208.488 175.835C203.172 179.633 200.133 185.994 197.57 191.88C194.912 197.957 203.836 203.273 206.59 197.102C208.394 192.925 213.615 179.538 220.451 183.145C223.395 184.665 223.679 189.507 223.489 192.355C223.205 196.248 221.496 199.855 218.837 202.704C214.375 207.736 221.686 215.141 226.243 210.204Z" fill="#670000"/>
<path d="M158.074 183.62C158.738 192.83 167.568 199.381 176.493 195.963C181.24 194.159 179.151 186.374 174.404 188.272C170.701 189.697 166.429 187.988 166.049 183.62C165.669 178.493 157.694 178.398 158.074 183.62Z" fill="#670000"/>
</svg>
