<?xml version="1.0" encoding="utf-8"?>
<!-- Generator: Adobe Illustrator 24.2.1, SVG Export Plug-In . SVG Version: 6.00 Build 0)  -->
<svg version="1.1" id="Layer_1" xmlns="http://www.w3.org/2000/svg" xmlns:xlink="http://www.w3.org/1999/xlink" x="0px" y="0px"
	 viewBox="0 0 929 856" style="enable-background:new 0 0 929 856;" xml:space="preserve">
<style type="text/css">
	.st0{fill:#670000;}
	.st1{fill:#FF952E;}
	.st2{fill:#FFC300;}
	.st3{fill:#78C300;}
	.st4{fill:#FF6600;}
</style>
<g>
	<g>
		<path class="st0" d="M802.1,26c17.4,0,35.3,13.5,37.8,34.5c1.8,15.3,2.6,40.8,1.4,70.2c13.9-4.6,25.4-6.7,25.4-6.7
			s7.1-0.7,18.7-0.7c35,0,111.2,6.2,162,55.6c67.6,65.9,63.6,109.5,48.1,129.5c-13.2,17.1-48.2,18.3-58.1,18.3c-1.7,0-2.6,0-2.6,0
			s-0.8,0-2.5,0c-14.2,0-88.5-2.5-171-51.3c-14.8-8.8-26.5-17.6-35.8-26.1c-2.5,9.4-5.3,18.5-8.4,26.8c-1.3,3.4-4,10.6-5.5,13.8
			c-0.3-0.2-0.6-0.4-1-0.6c5.9,4.1,11.8,8.3,17.5,12.8c26,20,50.5,43.5,72.9,70.7c1.6,2.4,3.2,4.9,4.8,7.4
			c183.2,290.5-41.4,808.2-585.4,853.5c-14.4,1.5-28.2,2.2-41.5,2.2c-41.6,0-77.8-7.1-108.8-19.2
			C65.8,1175.7,20.2,1077.8,27.3,999.9c10.9-121,79.7-113.4,83-359.8c3.8-267,226.6-427.5,450.6-427.5c61.9,0,123.8,12.3,181.3,37.9
			c0.7,0.3,1.4,0.7,2.1,1c16.9-53.6,24.8-140.1,22.8-168.7C764.3,42.3,782.9,26,802.1,26 M802.1-0.3c-16.2,0-31.3,6.5-42.3,18.4
			c-10,10.7-21.4,31-18.9,66.6c1.5,21.5-3.6,82.4-14.4,131.1c-52.2-19.5-107.8-29.4-165.6-29.4c-59.2,0-117.6,10.4-173.4,30.9
			C330.8,238,279.8,268,235.7,306.5c-46.3,40.5-82.9,88.6-108.7,143C99.5,507.7,85,571.7,84,639.7c-2,144.6-26.8,197-48.6,243.3
			C20.2,915.2,5.8,945.7,1.1,997.5c-4.2,46.2,7.6,95.3,33.3,138.1c28.7,47.9,72.3,84.3,126.2,105.4c35.7,13.9,75.5,21,118.4,21
			c14.3,0,29.1-0.8,44-2.4c72.9-6.1,142.9-20.7,208-43.5c61.7-21.6,119.6-50.6,172-86.3c97.7-66.4,176.5-155.9,227.7-258.6
			c41.9-84,64.1-174.5,64.2-262c0.2-89.6-23-173.8-66.8-243.3c-1.8-2.8-3.5-5.4-5.1-7.9l-0.8-1.1l-0.9-1.1
			c-10.9-13.2-22.5-25.8-34.5-37.7c72.1,32.8,132.4,34.7,145.4,34.7c1,0,1.9,0,2.4,0c0.6,0,1.5,0,2.7,0c21.2,0,59.7-3.7,78.9-28.5
			c8.3-10.8,21-34.2,11.8-70.1c-7.5-29.6-28.5-61.4-62.3-94.3c-56.3-54.8-137.1-63-180.3-63c-7.8,0-13.7,0.3-17.4,0.5
			c-0.1-15.5-0.9-29.5-2.1-40.1C862.1,24.5,834.7-0.3,802.1-0.3C802.1-0.3,802.1-0.3,802.1-0.3L802.1-0.3z"/>
		<g>
			<g>
				<g>
					<path class="st1" d="M705,551.8c-59.4,89.3-87.6,195.1-122.4,296.6c-34.8,101.5-80.1,204.5-162.9,272.7
						c-60.4,49.8-136.6,77.2-213.8,90.3c-11.9,2-23.9,3.7-35.8,5.1c40.9,16,90.9,23.2,150.3,17c544-45.3,768.6-563,585.4-853.5
						C825.1,417.9,754.4,477.5,705,551.8z"/>
				</g>
				<g>
					<path class="st2" d="M419.7,1121.1c82.8-68.3,128-171.3,162.9-272.7c34.8-101.5,63-207.2,122.4-296.6
						c49.4-74.3,120.1-133.9,200.9-171.9c-1.6-2.5-3.1-4.9-4.8-7.4c-22.5-27.2-46.9-50.7-72.9-70.7c-27.2-20.9-56.1-38-86.1-51.4
						c-265.3-118.5-626.9,48.8-631.8,389.6c-3.3,246.4-72.1,238.7-83,359.8c-7,77.9,38.5,175.9,142.9,216.7
						c12-1.4,23.9-3.1,35.8-5.1C283.1,1198.3,359.4,1170.9,419.7,1121.1z"/>
				</g>
			</g>
			<g>
				<path class="st1" d="M817.1,275.9c25.3-67,27.5-175.6,22.8-215.5c-5.2-44-78.2-55.1-72.8,22.4c2,28.7-6,115.2-22.9,168.8
					c23.5,10.5,43.5,22.7,67.4,38.1C813,286.6,815.8,279.4,817.1,275.9z"/>
			</g>
			<g>
				<path class="st3" d="M795.4,165.2c0,0-25.9,55.6,65.9,110s173.4,51.3,173.4,51.3s45.3,1.7,60.8-18.3
					c15.5-20,19.6-63.6-48.1-129.5s-180.7-54.9-180.7-54.9S801.6,135.7,795.4,165.2z"/>
			</g>
		</g>
	</g>
	<g>
		<g>
			<g>
				<g>
					
						<ellipse transform="matrix(0.256 -0.9667 0.9667 0.256 -199.7212 609.1617)" class="st4" cx="295.9" cy="434.3" rx="51.9" ry="73.3"/>
				</g>
			</g>
			<path class="st0" d="M384.7,441.3c5.1-13.5,24.9-42.1,42.5-28c16.6,13.3-7,41.8-15.2,53.1c-11.4,15.8,14.8,30.9,26.1,15.3
				c11.3-15.5,23-32.9,24.5-52.6c1.2-17.1-6.6-34.1-21.6-42.8c-37.3-21.8-73,14.3-85.4,47C348.7,451.5,377.9,459.3,384.7,441.3
				L384.7,441.3z"/>
		</g>
		<g>
			<g>
				<g>
					
						<ellipse transform="matrix(0.7028 -0.7113 0.7113 0.7028 -261.8971 685.1454)" class="st4" cx="689.1" cy="656" rx="51.9" ry="73.3"/>
				</g>
			</g>
			<path class="st0" d="M659.3,610.2c23.7-25.7,35.6-79.1,1.5-102.4c-16.2-11.1-37.5-8.2-52.9,2.9c-15.5,11.1-24.2,29.6-31.6,46.7
				c-7.7,17.6,18.3,33.1,26.1,15.3c5.3-12.2,20.4-51.1,40.3-40.6c8.4,4.4,9.4,18.5,8.7,26.7c-0.9,11.3-5.8,21.9-13.5,30.2
				C624.8,603.1,646.1,624.5,659.3,610.2L659.3,610.2z"/>
		</g>
		<path class="st0" d="M461.3,532.9c2,26.6,27.6,45.8,53.6,35.9c13.9-5.2,7.9-27.7-6.2-22.4c-10.9,4.1-23.2-0.8-24.2-13.5
			C483.5,518.1,460.2,518,461.3,532.9L461.3,532.9z"/>
	</g>
</g>
</svg>
