<svg width="400" height="400" viewBox="0 0 400 400" fill="none" xmlns="http://www.w3.org/2000/svg">
<path d="M269.657 21.9154C274.782 21.9154 280.069 25.9012 280.801 32.0831C281.371 36.5569 281.533 44.1217 281.208 52.7439C285.275 51.3611 288.691 50.7917 288.691 50.7917C288.691 50.7917 290.806 50.629 294.223 50.629C304.553 50.629 326.922 52.4185 341.889 66.9786C361.817 86.3379 360.597 99.1899 356.042 105.046C352.138 110.09 341.889 110.415 338.96 110.415C338.472 110.415 338.147 110.415 338.147 110.415C338.147 110.415 337.903 110.415 337.415 110.415C333.266 110.415 311.386 109.683 287.146 95.2855C282.835 92.6825 279.337 90.1609 276.653 87.558C275.921 90.3236 275.107 93.0079 274.213 95.4481C273.969 96.1802 273.155 98.1324 272.586 99.5152C274.213 100.654 275.839 101.793 277.466 103.094C285.112 108.951 292.27 115.865 298.94 123.918C299.428 124.65 299.916 125.382 300.323 126.114C354.253 211.604 288.122 363.875 128.123 377.215C123.893 377.622 119.826 377.866 115.922 377.866C103.721 377.866 93.0651 375.751 83.9548 372.253C53.2891 360.215 39.8677 331.42 41.9013 308.482C45.1549 272.854 71.9976 274.643 66.3037 202.656C70.4521 124.894 134.712 77.065 199.866 77.065C217.599 77.065 235.413 80.644 252.169 88.0461C252.25 88.1274 252.332 88.1274 252.494 88.2088C257.294 72.3472 260.14 46.9686 259.571 38.7531C258.514 26.7146 264.045 21.9154 269.657 21.9154ZM269.657 13.7C264.777 13.7 260.222 15.6521 256.805 19.2312C253.796 22.4848 250.379 28.5041 251.112 39.1598C251.518 44.7724 249.891 62.2608 246.638 76.9023C231.752 71.4524 215.972 68.6868 199.704 68.6868C182.459 68.6868 165.378 71.7778 149.028 77.8784C132.597 84.0603 117.63 92.9266 104.616 104.314C91.0315 116.19 80.1318 130.344 72.2416 146.368C63.7821 163.368 58.983 182.158 57.9255 202.005C57.9255 202.331 57.9255 202.738 57.9255 203.063C61.2605 245.523 53.1264 260.002 45.2363 273.993C40.1118 283.184 34.9059 292.539 33.5231 307.668C32.303 321.415 35.8007 335.894 43.3654 348.583C51.8249 362.736 64.7582 373.555 80.7012 379.818C91.2755 383.966 102.989 386 115.678 386C119.908 386 124.219 385.756 128.693 385.268C150.167 383.478 170.828 379.167 190.024 372.416C208.245 366.071 225.245 357.53 240.781 346.956C269.576 327.353 292.84 300.998 307.969 270.658C320.333 245.93 326.84 219.169 326.922 193.383C327.003 166.947 320.171 142.057 307.156 121.559C306.586 120.745 306.098 119.932 305.61 119.2C305.448 118.956 305.285 118.712 305.122 118.549C302.438 115.295 299.672 112.286 296.826 109.276C317.08 117.898 333.673 118.468 337.415 118.468C337.74 118.468 337.984 118.468 338.147 118.468C338.31 118.468 338.635 118.468 338.96 118.468C345.305 118.468 356.774 117.329 362.549 109.927C365.071 106.673 368.894 99.6779 366.128 88.8595C363.851 80.0746 357.669 70.639 347.664 60.878C330.989 44.6097 307.075 42.1695 294.304 42.1695C292.352 42.1695 290.806 42.2508 289.667 42.2508C289.586 37.8584 289.423 33.954 289.017 30.9443C287.797 21.1834 279.5 13.7 269.657 13.7Z" fill="#670000"/>
<path d="M241.107 176.627C223.618 202.9 215.321 234.054 205.072 263.906C194.823 293.759 181.483 324.018 157.162 344.109C139.43 358.75 116.979 366.803 94.2852 370.708C90.7875 371.277 87.2898 371.765 83.7108 372.172C95.7494 376.89 110.472 379.004 127.961 377.134C288.041 363.794 354.09 211.522 300.161 126.032C276.409 137.258 255.585 154.746 241.107 176.627Z" fill="#FF952E"/>
<path d="M157.162 344.109C181.483 324.018 194.823 293.759 205.072 263.906C215.321 234.054 223.618 202.982 241.107 176.627C255.667 154.746 276.409 137.258 300.16 126.033C299.672 125.3 299.266 124.568 298.778 123.836C292.189 115.865 284.95 108.951 277.304 103.013C269.332 96.8309 260.791 91.8691 252.006 87.8833C173.919 53.0692 71.4282 103.582 66.141 202.494C71.7536 274.481 44.9109 272.691 41.7386 308.319C39.7051 331.257 53.0451 360.052 83.7921 372.091C87.2898 371.684 90.8689 371.196 94.3665 370.626C116.979 366.803 139.43 358.751 157.162 344.109Z" fill="#FFC600"/>
<path d="M274.05 95.4482C281.452 75.7636 282.184 43.7964 280.801 32.0832C279.256 19.1499 257.782 15.8962 259.408 38.6719C259.978 47.1314 257.049 73.3233 252.088 89.1036C259.002 92.1946 265.672 96.099 271.935 100.979C272.342 100.003 273.643 96.5057 274.05 95.4482Z" fill="#FF952E"/>
<path d="M267.705 62.9115C267.705 62.9115 260.059 79.2611 287.064 95.2854C314.07 111.31 338.066 110.415 338.066 110.415C338.066 110.415 351.406 110.903 355.961 105.046C360.516 99.1898 361.736 86.3378 341.807 66.9785C321.879 47.6193 288.691 50.7103 288.691 50.7103C288.691 50.7103 269.495 54.2079 267.705 62.9115Z" fill="#AAC300"/>
<path d="M140.81 147.395C142.973 139.231 135.361 130.132 123.809 127.073C112.257 124.014 101.14 128.152 98.9778 136.317C96.8157 144.481 104.428 153.58 115.979 156.639C127.531 159.698 138.648 155.559 140.81 147.395Z" fill="#FF6600"/>
<path d="M146.1 143.928C147.645 139.942 153.42 131.482 158.626 135.631C163.507 139.535 156.511 147.995 154.153 151.33C150.818 155.966 158.545 160.44 161.88 155.804C165.215 151.248 168.713 146.124 169.119 140.267C169.445 135.224 167.167 130.181 162.775 127.659C151.794 121.233 141.219 131.889 137.559 141.569C135.444 146.937 144.066 149.296 146.1 143.928Z" fill="#670000"/>
<path d="M251.266 222.504C257.201 216.497 255.122 204.819 246.623 196.42C238.123 188.022 226.421 186.084 220.485 192.091C214.549 198.099 216.628 209.777 225.128 218.175C233.628 226.573 245.33 228.511 251.266 222.504Z" fill="#FF6600"/>
<path d="M227.116 193.79C234.111 186.225 237.609 170.445 227.523 163.531C222.723 160.277 216.46 161.091 211.905 164.344C207.35 167.598 204.747 173.048 202.551 178.091C200.273 183.297 207.919 187.852 210.278 182.565C211.824 178.986 216.297 167.517 222.154 170.608C224.676 171.909 224.92 176.058 224.757 178.498C224.513 181.833 223.049 184.924 220.771 187.364C216.948 191.675 223.211 198.02 227.116 193.79Z" fill="#670000"/>
<path d="M168.713 171.014C169.282 178.904 176.847 184.517 184.493 181.589C188.56 180.043 186.77 173.373 182.703 175C179.531 176.22 175.871 174.756 175.545 171.014C175.22 166.622 168.387 166.541 168.713 171.014Z" fill="#670000"/>
</svg>
