<?xml version="1.0" encoding="utf-8"?>
<!-- Generator: Adobe Illustrator 24.2.1, SVG Export Plug-In . SVG Version: 6.00 Build 0)  -->
<svg version="1.1" id="Layer_1" xmlns="http://www.w3.org/2000/svg" xmlns:xlink="http://www.w3.org/1999/xlink" x="0px" y="0px"
	 viewBox="0 0 400 400" style="enable-background:new 0 0 400 400;" xml:space="preserve">
<style type="text/css">
	.st0{fill:#670000;}
	.st1{fill:#FF952E;}
	.st2{fill:#FFC300;}
	.st3{fill:#78C300;}
	.st4{fill:#FF6600;}
</style>
<g>
	<g>
		<path class="st0" d="M269.8,21.5c5.1,0,10.4,4,11.1,10.2c0.5,4.5,0.8,12.1,0.4,20.7c4.1-1.4,7.5-2,7.5-2s2.1-0.2,5.5-0.2
			c10.3,0,32.8,1.8,47.8,16.4c20,19.4,18.8,32.3,14.2,38.2c-3.9,5-14.2,5.4-17.2,5.4c-0.5,0-0.8,0-0.8,0s-0.2,0-0.7,0
			c-4.2,0-26.1-0.7-50.5-15.2c-4.4-2.6-7.8-5.2-10.6-7.7c-0.7,2.8-1.6,5.4-2.5,7.9c-0.4,1-1.2,3.1-1.6,4.1c-0.1-0.1-0.2-0.1-0.3-0.2
			c1.7,1.2,3.5,2.5,5.2,3.8c7.7,5.9,14.9,12.8,21.5,20.9c0.5,0.7,0.9,1.4,1.4,2.2c54.1,85.7-12.2,238.5-172.8,251.9
			c-4.2,0.4-8.3,0.7-12.3,0.7c-12.3,0-23-2.1-32.1-5.7c-30.8-12-44.2-41-42.2-63.9c3.2-35.7,23.5-33.5,24.5-106.2
			c1.1-78.8,66.9-126.2,133-126.2c18.3,0,36.5,3.6,53.5,11.2c0.2,0.1,0.4,0.2,0.6,0.3c5-15.8,7.3-41.3,6.7-49.8
			C258.6,26.3,264.1,21.5,269.8,21.5 M269.8,13.7c-4.8,0-9.2,1.9-12.5,5.4c-2.9,3.2-6.3,9.1-5.6,19.7c0.4,6.3-1.1,24.3-4.2,38.7
			c-15.4-5.8-31.8-8.7-48.9-8.7c-17.5,0-34.7,3.1-51.2,9.1c-16.7,6.1-31.8,15-44.8,26.3c-13.7,11.9-24.5,26.1-32.1,42.2
			c-8.1,17.2-12.4,36.1-12.7,56.2c-0.6,42.7-7.9,58.1-14.4,71.8c-4.5,9.5-8.7,18.5-10.1,33.8c-1.2,13.6,2.3,28.1,9.8,40.8
			c8.5,14.1,21.3,24.9,37.2,31.1c10.5,4.1,22.3,6.2,34.9,6.2c4.2,0,8.6-0.2,13-0.7c21.5-1.8,42.2-6.1,61.4-12.8
			c18.2-6.4,35.3-14.9,50.8-25.5c28.8-19.6,52.1-46,67.2-76.3c12.4-24.8,18.9-51.5,19-77.3c0-26.5-6.8-51.3-19.7-71.8
			c-0.5-0.8-1-1.6-1.5-2.3l-0.2-0.3l-0.3-0.3c-3.2-3.9-6.6-7.6-10.2-11.1c21.3,9.7,39.1,10.2,42.9,10.2c0.3,0,0.6,0,0.7,0
			c0.2,0,0.4,0,0.8,0c6.3,0,17.6-1.1,23.3-8.4c2.5-3.2,6.2-10.1,3.5-20.7c-2.2-8.7-8.4-18.1-18.4-27.8
			c-16.6-16.2-40.5-18.6-53.2-18.6c-2.3,0-4.1,0.1-5.1,0.2c0-4.6-0.3-8.7-0.6-11.8C287.5,21,279.4,13.7,269.8,13.7
			C269.8,13.7,269.8,13.7,269.8,13.7L269.8,13.7z"/>
		<g>
			<g>
				<g>
					<path class="st1" d="M241.1,176.7c-17.5,26.4-25.8,57.6-36.1,87.5c-10.3,29.9-23.6,60.3-48.1,80.5
						c-17.8,14.7-40.3,22.8-63.1,26.7c-3.5,0.6-7,1.1-10.6,1.5c12.1,4.7,26.8,6.8,44.4,5C288.2,364.5,354.4,211.7,300.4,126
						C276.5,137.1,255.7,154.7,241.1,176.7z"/>
				</g>
				<g>
					<path class="st2" d="M156.9,344.7c24.4-20.1,37.8-50.5,48.1-80.5c10.3-29.9,18.6-61.2,36.1-87.5c14.6-21.9,35.5-39.5,59.3-50.7
						c-0.5-0.7-0.9-1.5-1.4-2.2c-6.6-8-13.8-15-21.5-20.9c-8-6.2-16.6-11.2-25.4-15.2c-78.3-35-185,14.4-186.5,115
						c-1,72.7-21.3,70.5-24.5,106.2c-2.1,23,11.4,51.9,42.2,63.9c3.5-0.4,7.1-0.9,10.6-1.5C116.6,367.5,139.1,359.4,156.9,344.7z"/>
				</g>
			</g>
			<g>
				<path class="st1" d="M274.2,95.3c7.5-19.8,8.1-51.8,6.7-63.6c-1.5-13-23.1-16.3-21.5,6.6c0.6,8.5-1.8,34-6.8,49.8
					c6.9,3.1,12.8,6.7,19.9,11.3C273,98.4,273.8,96.3,274.2,95.3z"/>
			</g>
			<g>
				<path class="st3" d="M267.8,62.6c0,0-7.6,16.4,19.5,32.5c27.1,16,51.2,15.1,51.2,15.1s13.4,0.5,17.9-5.4
					c4.6-5.9,5.8-18.8-14.2-38.2s-53.3-16.2-53.3-16.2S269.6,53.8,267.8,62.6z"/>
			</g>
		</g>
	</g>
	<g>
		<g>
			<g>
				<g>
					
						<ellipse transform="matrix(0.256 -0.9667 0.9667 0.256 -47.7289 221.9807)" class="st4" cx="120.3" cy="142" rx="15.3" ry="21.6"/>
				</g>
			</g>
			<path class="st0" d="M146.6,144.1c1.5-4,7.3-12.4,12.6-8.3c4.9,3.9-2.1,12.3-4.5,15.7c-3.4,4.7,4.4,9.1,7.7,4.5
				c3.3-4.6,6.8-9.7,7.2-15.5c0.4-5.1-1.9-10.1-6.4-12.6c-11-6.4-21.5,4.2-25.2,13.9C135.9,147.1,144.5,149.4,146.6,144.1
				L146.6,144.1z"/>
		</g>
		<g>
			<g>
				<g>
					
						<ellipse transform="matrix(0.7028 -0.7113 0.7113 0.7028 -77.3085 229.805)" class="st4" cx="236.4" cy="207.4" rx="15.3" ry="21.6"/>
				</g>
			</g>
			<path class="st0" d="M227.6,193.9c7-7.6,10.5-23.3,0.4-30.2c-4.8-3.3-11.1-2.4-15.6,0.8c-4.6,3.3-7.1,8.7-9.3,13.8
				c-2.3,5.2,5.4,9.8,7.7,4.5c1.6-3.6,6-15.1,11.9-12c2.5,1.3,2.8,5.5,2.6,7.9c-0.3,3.3-1.7,6.5-4,8.9
				C217.4,191.8,223.7,198.1,227.6,193.9L227.6,193.9z"/>
		</g>
		<path class="st0" d="M169.2,171.1c0.6,7.9,8.1,13.5,15.8,10.6c4.1-1.5,2.3-8.2-1.8-6.6c-3.2,1.2-6.9-0.2-7.1-4
			C175.7,166.7,168.9,166.7,169.2,171.1L169.2,171.1z"/>
	</g>
</g>
</svg>
