<svg width="375" height="270" viewBox="0 0 375 270" fill="none" xmlns="http://www.w3.org/2000/svg">
<path d="M272.278 10.7147C278.961 10.7147 285.857 15.9129 286.811 23.9754C287.554 29.8101 287.766 39.6761 287.342 50.9212C292.646 49.1177 297.102 48.3751 297.102 48.3751C297.102 48.3751 299.86 48.163 304.316 48.163C317.789 48.163 346.962 50.4969 366.482 69.4862C392.473 94.7347 390.882 111.496 384.941 119.134C379.849 125.712 366.482 126.136 362.663 126.136C362.026 126.136 361.602 126.136 361.602 126.136C361.602 126.136 361.284 126.136 360.647 126.136C355.237 126.136 326.7 125.181 295.086 106.404C289.464 103.009 284.902 99.7207 281.401 96.326C280.446 99.9329 279.385 103.434 278.219 106.616C277.9 107.571 276.839 110.117 276.097 111.921C278.219 113.406 280.34 114.891 282.462 116.588C292.434 124.227 301.77 133.244 310.469 143.746C311.105 144.701 311.742 145.656 312.272 146.611C382.607 258.107 296.359 456.7 87.6883 474.098C82.1719 474.628 76.8676 474.946 71.7755 474.946C55.8626 474.946 41.9653 472.188 30.0837 467.626C-9.91063 451.926 -27.4148 414.371 -24.7626 384.455C-20.5192 337.99 14.4891 340.323 7.06311 246.437C12.4735 145.019 96.2813 82.6409 181.256 82.6409C204.383 82.6409 227.616 87.3087 249.469 96.9625C249.575 97.0686 249.681 97.0686 249.894 97.1746C256.153 76.4879 259.866 43.3891 259.123 32.6744C257.744 16.9737 264.958 10.7147 272.278 10.7147ZM272.278 0C265.913 0 259.972 2.54606 255.516 7.21384C251.591 11.4573 247.135 19.3076 248.09 33.2049C248.621 40.5248 246.499 63.3332 242.255 82.4287C222.842 75.321 202.261 71.714 181.044 71.714C158.554 71.714 136.276 75.7453 114.952 83.7017C93.5231 91.7643 74.0033 103.328 57.0295 118.18C39.3132 133.668 25.0977 152.127 14.8074 173.026C3.77445 195.198 -2.48462 219.704 -3.86374 245.589C-3.86374 246.013 -3.86374 246.544 -3.86374 246.968C0.485786 302.345 -10.1228 321.228 -20.4131 339.475C-27.0965 351.462 -33.886 363.662 -35.6895 383.394C-37.2808 401.323 -32.7191 420.206 -22.8531 436.755C-11.8202 455.214 5.04748 469.324 25.8403 477.492C39.6315 482.903 54.9078 485.555 71.4572 485.555C76.9737 485.555 82.5962 485.237 88.4309 484.6C116.438 482.266 143.383 476.644 168.42 467.839C192.183 459.564 214.355 448.425 234.617 434.634C272.172 409.067 302.512 374.695 322.244 335.125C338.369 302.875 346.856 267.973 346.962 234.344C347.068 199.866 338.157 167.403 321.183 140.67C320.441 139.609 319.804 138.548 319.168 137.593C318.955 137.275 318.743 136.957 318.531 136.745C315.03 132.501 311.423 128.576 307.71 124.651C334.126 135.896 355.767 136.639 360.647 136.639C361.072 136.639 361.39 136.639 361.602 136.639C361.814 136.639 362.238 136.639 362.663 136.639C370.938 136.639 385.896 135.153 393.428 125.5C396.716 121.256 401.702 112.133 398.096 98.0233C395.125 86.5661 387.063 74.2601 374.014 61.5298C352.266 40.3126 321.077 37.13 304.422 37.13C301.876 37.13 299.86 37.2361 298.375 37.2361C298.269 31.5075 298.057 26.4154 297.526 22.4902C295.935 9.7599 285.114 0 272.278 0Z" fill="#670000"/>
<path d="M235.042 212.49C212.233 246.755 201.412 287.386 188.046 326.32C174.679 365.253 157.281 404.717 125.561 430.92C102.434 450.016 73.1547 460.518 43.5567 465.61C38.9951 466.353 34.4334 466.99 29.7656 467.52C45.4663 473.673 64.6678 476.431 87.4763 473.991C296.253 456.593 382.395 258 312.06 146.504C281.083 161.144 253.925 183.952 235.042 212.49Z" fill="#FF952E"/>
<path d="M125.561 430.921C157.281 404.717 174.679 365.253 188.046 326.32C201.412 287.386 212.233 246.862 235.042 212.49C254.031 183.953 281.083 161.144 312.06 146.504C311.423 145.55 310.893 144.595 310.256 143.64C301.663 133.244 292.222 124.226 282.25 116.482C271.853 108.419 260.714 101.948 249.257 96.75C147.415 51.3453 13.7465 117.225 6.85093 246.225C14.1709 340.111 -20.8375 337.777 -24.9748 384.243C-27.627 414.159 -10.2289 451.713 29.8716 467.414C34.4332 466.884 39.101 466.247 43.6627 465.504C73.1546 460.518 102.434 450.016 125.561 430.921Z" fill="#FFC600"/>
<path d="M279.038 104.765C288.692 79.0926 289.647 37.4009 287.844 22.1245C285.828 5.25686 256.631 0.944589 258.753 30.6486C259.496 41.6816 256.309 76.5592 249.838 97.1399C259.125 101.969 267.668 106.612 276.28 111.979C276.811 110.706 278.508 106.144 279.038 104.765Z" fill="#FF952E"/>
<path d="M269.731 64.1815C269.731 64.1815 259.759 85.5048 294.98 106.404C330.2 127.303 361.496 126.136 361.496 126.136C361.496 126.136 378.894 126.772 384.835 119.134C390.775 111.496 392.367 94.7342 366.376 69.4858C340.385 44.2374 297.102 48.2686 297.102 48.2686C297.102 48.2686 272.065 52.8303 269.731 64.1815Z" fill="#AAC300"/>
<path d="M104.235 174.365C107.055 163.717 97.1276 151.851 82.0618 147.861C66.9959 143.871 52.4967 149.269 49.6769 159.917C46.8571 170.565 56.7845 182.431 71.8504 186.421C86.9162 190.411 101.415 185.013 104.235 174.365Z" fill="#FF6600"/>
<path d="M111.134 169.843C113.149 164.645 120.681 153.612 127.471 159.022C133.836 164.115 124.713 175.147 121.636 179.497C117.287 185.544 127.365 191.379 131.714 185.332C136.064 179.391 140.626 172.707 141.156 165.069C141.58 158.492 138.61 151.915 132.881 148.626C118.56 140.245 104.768 154.142 99.9946 166.767C97.2364 173.768 108.481 176.845 111.134 169.843Z" fill="#670000"/>
<path d="M248.291 272.323C256.032 264.488 253.321 249.257 242.236 238.304C231.15 227.351 215.888 224.824 208.147 232.658C200.406 240.493 203.117 255.724 214.202 266.677C225.288 277.63 240.55 280.158 248.291 272.323Z" fill="#FF6600"/>
<path d="M216.795 234.874C225.918 225.008 230.48 204.428 217.325 195.41C211.066 191.167 202.898 192.228 196.957 196.471C191.016 200.715 187.621 207.822 184.757 214.4C181.787 221.189 191.759 227.13 194.835 220.234C196.851 215.567 202.686 200.609 210.324 204.64C213.612 206.337 213.931 211.748 213.719 214.93C213.4 219.28 211.491 223.311 208.52 226.494C203.534 232.116 211.703 240.391 216.795 234.874Z" fill="#670000"/>
<path d="M140.626 205.17C141.368 215.461 151.234 222.781 161.206 218.961C166.511 216.946 164.177 208.247 158.872 210.369C154.735 211.96 149.961 210.05 149.537 205.17C149.112 199.442 140.201 199.336 140.626 205.17Z" fill="#670000"/>
</svg>
