<svg width="929" height="856" viewBox="0 0 929 856" fill="none" xmlns="http://www.w3.org/2000/svg">
<path d="M800.877 27.8357C818.24 27.8357 836.154 41.3402 838.634 62.2859C840.563 77.4439 841.114 103.075 840.012 132.289C853.792 127.603 865.367 125.674 865.367 125.674C865.367 125.674 872.533 125.123 884.108 125.123C919.109 125.123 994.9 131.186 1045.61 180.519C1113.13 246.112 1109 289.657 1093.56 309.5C1080.34 326.587 1045.61 327.69 1035.69 327.69C1034.04 327.69 1032.93 327.69 1032.93 327.69C1032.93 327.69 1032.11 327.69 1030.45 327.69C1016.4 327.69 942.26 325.209 860.131 276.428C845.524 267.609 833.673 259.065 824.578 250.246C822.098 259.616 819.342 268.711 816.31 276.979C815.484 279.46 812.727 286.074 810.798 290.759C816.31 294.618 821.822 298.476 827.334 302.886C853.241 322.729 877.494 346.155 900.093 373.439C901.747 375.92 903.4 378.4 904.778 380.881C1087.5 670.537 863.438 1186.46 321.331 1231.66C306.999 1233.04 293.219 1233.87 279.991 1233.87C238.65 1233.87 202.547 1226.7 171.679 1214.85C67.7777 1174.06 22.3036 1076.5 29.1936 998.778C40.2176 878.065 131.166 884.128 111.874 640.221C125.93 376.747 343.654 214.693 564.411 214.693C624.492 214.693 684.849 226.82 741.622 251.899C741.898 252.175 742.174 252.175 742.725 252.451C758.985 198.708 768.631 112.721 766.702 84.8851C763.119 44.0962 781.86 27.8357 800.877 27.8357ZM800.877 0C784.341 0 768.907 6.61443 757.332 18.7409C747.134 29.7649 735.559 50.1594 738.04 86.2631C739.418 105.28 733.906 164.534 722.881 214.142C672.446 195.677 618.98 186.306 563.86 186.306C505.432 186.306 447.556 196.779 392.16 217.449C336.489 238.395 285.778 268.435 241.682 307.02C195.657 347.257 158.726 395.212 131.993 449.505C103.33 507.106 87.0698 570.77 83.487 638.017C83.487 639.119 83.487 640.497 83.487 641.599C94.7867 785.463 67.2265 834.52 40.4932 881.924C23.1304 913.066 5.49191 944.761 0.806689 996.022C-3.32733 1042.6 8.52352 1091.66 34.1544 1134.65C62.8169 1182.6 106.638 1219.26 160.655 1240.48C196.483 1254.54 236.17 1261.43 279.164 1261.43C293.495 1261.43 308.102 1260.6 323.26 1258.95C396.019 1252.88 466.021 1238.28 531.063 1215.4C592.798 1193.9 650.398 1164.97 703.038 1129.14C800.601 1062.72 879.423 973.423 930.685 870.624C972.576 786.841 994.624 696.168 994.9 608.803C995.175 519.232 972.025 434.899 927.929 365.447C926 362.691 924.346 359.935 922.692 357.455C922.141 356.628 921.59 355.801 921.039 355.25C911.944 344.226 902.573 334.029 892.927 323.831C961.552 353.045 1017.77 354.974 1030.45 354.974C1031.55 354.974 1032.38 354.974 1032.93 354.974C1033.48 354.974 1034.59 354.974 1035.69 354.974C1057.19 354.974 1096.05 351.116 1115.61 326.036C1124.16 315.012 1137.11 291.31 1127.74 254.655C1120.02 224.891 1099.08 192.921 1065.18 159.849C1008.68 104.728 927.653 96.4604 884.384 96.4604C877.769 96.4604 872.533 96.736 868.674 96.736C868.399 81.8535 867.848 68.6247 866.47 58.4274C862.336 25.3553 834.224 0 800.877 0Z" fill="#670000"/>
<path d="M704.141 552.027C644.887 641.046 616.775 746.602 582.05 847.747C547.324 948.893 502.125 1051.42 419.721 1119.49C359.64 1169.1 283.574 1196.38 206.681 1209.61C194.83 1211.54 182.979 1213.19 170.853 1214.57C211.642 1230.56 261.526 1237.72 320.78 1231.38C863.163 1186.19 1086.95 670.26 904.227 380.603C823.752 418.636 753.198 477.89 704.141 552.027Z" fill="#FF952E"/>
<path d="M419.72 1119.49C502.125 1051.42 547.323 948.894 582.049 847.748C616.775 746.602 644.886 641.323 704.141 552.028C753.473 477.891 823.751 418.637 904.227 380.604C902.573 378.124 901.195 375.643 899.542 373.163C877.218 346.154 852.689 322.728 826.783 302.609C799.774 281.663 770.836 264.852 741.071 251.347C476.494 133.39 129.237 304.538 111.323 639.669C130.339 883.576 39.3907 877.513 28.6422 998.226C21.7522 1075.95 66.9508 1173.51 171.128 1214.3C182.979 1212.92 195.105 1211.27 206.956 1209.34C283.573 1196.38 359.639 1169.1 419.72 1119.49Z" fill="#FFC600"/>
<path d="M818.44 272.171C843.52 205.475 846 97.1638 841.315 57.4773C836.079 13.6567 760.229 2.45381 765.741 79.6221C767.67 108.285 759.392 198.894 742.581 252.36C766.706 264.905 788.901 276.968 811.275 290.911C812.653 287.604 817.062 275.753 818.44 272.171Z" fill="#FF952E"/>
<path d="M794.261 166.738C794.261 166.738 768.355 222.133 859.855 276.427C951.354 330.72 1032.66 327.689 1032.66 327.689C1032.66 327.689 1077.86 329.342 1093.29 309.499C1108.72 289.656 1112.86 246.111 1045.33 180.518C977.812 114.925 865.367 125.397 865.367 125.397C865.367 125.397 800.325 137.248 794.261 166.738Z" fill="#AAC300"/>
<path d="M364.318 452.985C371.644 425.322 345.853 394.495 306.714 384.13C267.574 373.765 229.906 387.788 222.581 415.45C215.255 443.113 241.046 473.94 280.185 484.305C319.325 494.67 356.993 480.648 364.318 452.985Z" fill="#FF6600"/>
<path d="M382.239 441.238C387.476 427.734 407.044 399.071 424.682 413.127C441.218 426.356 417.516 455.018 409.524 466.318C398.224 482.027 424.406 497.185 435.706 481.476C447.006 466.042 458.857 448.68 460.235 428.836C461.337 411.749 453.62 394.662 438.738 386.118C401.532 364.346 365.703 400.449 353.301 433.246C346.136 451.436 375.349 459.428 382.239 441.238Z" fill="#670000"/>
<path d="M738.562 707.47C758.673 687.116 751.63 647.548 722.831 619.093C694.031 590.638 654.382 584.071 634.271 604.425C614.16 624.78 621.203 664.347 650.002 692.802C678.801 721.257 718.451 727.824 738.562 707.47Z" fill="#FF6600"/>
<path d="M656.738 610.181C680.44 584.55 692.29 531.084 658.116 507.658C641.855 496.634 620.634 499.39 605.201 510.414C589.767 521.438 580.948 539.903 573.506 556.99C565.79 574.629 591.696 590.062 599.689 572.148C604.925 560.022 620.083 521.162 639.926 531.635C648.47 536.044 649.297 550.1 648.745 558.368C647.919 569.668 642.958 580.141 635.241 588.409C622.288 603.016 643.509 624.512 656.738 610.181Z" fill="#670000"/>
<path d="M458.857 533.013C460.786 559.746 486.417 578.762 512.324 568.841C526.104 563.604 520.04 541.005 506.26 546.517C495.512 550.651 483.11 545.69 482.007 533.013C480.905 518.13 457.755 517.854 458.857 533.013Z" fill="#670000"/>
</svg>
